<svg xmlns="http://www.w3.org/2000/svg" width="490" height="140" viewBox="0 0 490 140"><path fill="#ee112a" d="M82.30 34.40Q82.30 42.90 77.90 50Q73.50 57.10 65.10 61.60Q56.70 66.10 45.10 66.90L45.10 66.90L40.80 91Q38.30 104.90 27.20 104.90L27.20 104.90Q21.10 104.90 15.95 101.30Q10.80 97.70 7.70 90.30Q4.60 82.90 4.60 72.10L4.60 72.10Q4.60 51.80 11.15 37.65Q17.70 23.50 28.75 16.45Q39.80 9.40 53.10 9.40L53.10 9.40Q62.50 9.40 69.05 12.70Q75.60 16 78.95 21.65Q82.30 27.30 82.30 34.40L82.30 34.40ZM46.90 56.60Q67.40 54 67.40 35.30L67.40 35.30Q67.40 28.70 63.05 24.55Q58.70 20.40 49.60 20.40L49.60 20.40Q39.30 20.40 31.65 26.90Q24 33.40 19.85 44.95Q15.70 56.50 15.70 71.30L15.70 71.30Q15.70 77.50 16.95 82.30Q18.20 87.10 20.15 89.75Q22.10 92.40 23.90 92.40L23.90 92.40Q26.40 92.40 27.70 85.50L27.70 85.50L31 66.60Q27.10 66 27.60 66.10L27.60 66.10Q24.60 65.60 23.70 64.25Q22.80 62.90 22.80 60.80L22.80 60.80Q22.80 58.60 24.05 57.30Q25.30 56 27.50 56L27.50 56Q28.50 56 29 56.10L29 56.10Q31.40 56.50 32.70 56.60L32.70 56.60Q34 48.80 36.40 35.70L36.40 35.70Q37 32.30 39.15 30.85Q41.30 29.40 44.20 29.40L44.20 29.40Q47.50 29.40 48.95 30.65Q50.40 31.90 50.40 34.60L50.40 34.60Q50.40 36.20 50.20 37.20L50.20 37.20L46.90 56.60ZM140.80 71.70Q142.10 71.70 142.85 72.90Q143.60 74.10 143.60 76.20L143.60 76.20Q143.60 80.20 141.70 82.40L141.70 82.40Q137.10 87.70 132.25 91.10Q127.40 94.50 121.20 94.50L121.20 94.50Q116.10 94.50 113.50 91.55Q110.90 88.60 110.90 83L110.90 83Q110.90 80.20 112.30 73L112.30 73Q113.60 66.70 113.60 64.30L113.60 64.30Q113.60 62.70 112.50 62.70L112.50 62.70Q111.20 62.70 108.80 66.05Q106.40 69.40 104 74.90Q101.60 80.40 100.10 86.50L100.10 86.50Q98.20 94.50 90.70 94.50L90.70 94.50Q87.70 94.50 86.75 92.35Q85.80 90.20 85.80 84.60L85.80 84.60Q85.80 81.40 85.90 79.50L85.90 79.50L86 71.50Q86 56.10 89.15 39.40Q92.30 22.70 98.45 11.35Q104.60 0 113.20 0L113.20 0Q117.80 0 120.65 3.95Q123.50 7.90 123.50 14.20L123.50 14.20Q123.50 24.30 117.60 35.15Q111.70 46 98.40 60.50L98.40 60.50Q98.10 65.70 98.10 71.20L98.10 71.20Q101.40 62.70 105.45 57.35Q109.50 52 113.45 49.70Q117.40 47.40 120.70 47.40L120.70 47.40Q127.20 47.40 127.20 53.90L127.20 53.90Q127.20 57.80 125 68L125 68Q123.10 76.70 123.10 79.50L123.10 79.50Q123.10 83.50 126 83.50L126 83.50Q128 83.50 130.75 81.05Q133.50 78.60 138.10 73.10L138.10 73.10Q139.30 71.70 140.80 71.70L140.80 71.70ZM111.10 9.90Q109.30 9.90 107.10 15.05Q104.90 20.20 102.85 28.95Q100.80 37.70 99.50 48L99.50 48Q105.70 40.70 109.75 32.10Q113.80 23.50 113.80 16.50L113.80 16.50Q113.80 13.30 113.10 11.60Q112.40 9.90 111.10 9.90L111.10 9.90ZM186.50 63.30Q187.80 63.30 188.50 64.60Q189.20 65.90 189.20 67.90L189.20 67.90Q189.20 72.70 186.30 73.60L186.30 73.60Q180.30 75.70 173.10 76L173.10 76Q171.20 84.40 165.60 89.45Q160 94.50 152.90 94.50L152.90 94.50Q146.90 94.50 142.65 91.60Q138.40 88.70 136.20 83.90Q134 79.10 134 73.50L134 73.50Q134 65.90 136.90 59.95Q139.80 54 144.90 50.65Q150 47.30 156.20 47.30L156.20 47.30Q163.80 47.30 168.45 52.55Q173.10 57.80 173.90 65.50L173.90 65.50Q178.60 65.20 185.10 63.50L185.10 63.50Q185.90 63.30 186.50 63.30L186.50 63.30ZM153.70 83.90Q156.90 83.90 159.25 81.30Q161.60 78.70 162.40 73.80L162.40 73.80Q159.30 71.70 157.65 68.30Q156 64.90 156 61.10L156 61.10Q156 59.50 156.30 57.90L156.30 57.90L155.80 57.90Q151.80 57.90 149.15 61.75Q146.50 65.60 146.50 72.60L146.50 72.60Q146.50 78.10 148.65 81Q150.80 83.90 153.70 83.90L153.70 83.90ZM227.70 71.70Q229 71.70 229.75 72.90Q230.50 74.10 230.50 76.20L230.50 76.20Q230.50 80.20 228.60 82.40L228.60 82.40Q224.30 87.70 219.20 91.10Q214.10 94.50 207.50 94.50L207.50 94.50Q187.10 94.50 187.10 65.80L187.10 65.80Q187.10 61.40 187.40 56.90L187.40 56.90L183.50 56.90Q180.50 56.90 179.45 55.80Q178.40 54.70 178.40 52.30L178.40 52.30Q178.40 46.70 182.90 46.70L182.90 46.70L188.60 46.70Q190.30 35.70 193.80 26.60Q197.30 17.50 202.25 12.10Q207.20 6.70 212.90 6.70L212.90 6.70Q217.10 6.70 219.50 10.40Q221.90 14.10 221.90 19.70L221.90 19.70Q221.90 35.20 208.90 46.70L208.90 46.70L220.10 46.70Q221.70 46.70 222.40 47.40Q223.10 48.10 223.10 50L223.10 50Q223.10 56.90 211.80 56.90L211.80 56.90L199.60 56.90Q199.40 61.90 199.40 64.70L199.40 64.70Q199.40 75.10 201.85 79.30Q204.30 83.50 209.60 83.50L209.60 83.50Q213.90 83.50 217.20 80.90Q220.50 78.30 225 73.10L225 73.10Q226.20 71.70 227.70 71.70L227.70 71.70ZM210.20 16.30Q208.70 16.30 206.85 20.05Q205 23.80 203.35 30.45Q201.70 37.10 200.60 45.20L200.60 45.20Q206.50 40.10 209.45 33.75Q212.40 27.40 212.40 22.20L212.40 22.20Q212.40 16.30 210.20 16.30L210.20 16.30ZM273.40 63.30Q274.70 63.30 275.40 64.60Q276.10 65.90 276.10 67.90L276.10 67.90Q276.10 72.70 273.20 73.60L273.20 73.60Q267.20 75.70 260 76L260 76Q258.10 84.40 252.50 89.45Q246.90 94.50 239.80 94.50L239.80 94.50Q233.80 94.50 229.55 91.60Q225.30 88.70 223.10 83.90Q220.90 79.10 220.90 73.50L220.90 73.50Q220.90 65.90 223.80 59.95Q226.70 54 231.80 50.65Q236.90 47.30 243.10 47.30L243.10 47.30Q250.70 47.30 255.35 52.55Q260 57.80 260.80 65.50L260.80 65.50Q265.50 65.20 272 63.50L272 63.50Q272.80 63.30 273.40 63.30L273.40 63.30ZM240.60 83.90Q243.80 83.90 246.15 81.30Q248.50 78.70 249.30 73.80L249.30 73.80Q246.20 71.70 244.55 68.30Q242.90 64.90 242.90 61.10L242.90 61.10Q242.90 59.50 243.20 57.90L243.20 57.90L242.70 57.90Q238.70 57.90 236.05 61.75Q233.40 65.60 233.40 72.60L233.40 72.60Q233.40 78.10 235.55 81Q237.70 83.90 240.60 83.90L240.60 83.90ZM318.70 71.90Q320 71.90 320.75 73.15Q321.50 74.40 321.50 76.30L321.50 76.30Q321.50 78.60 320.80 79.90Q320.10 81.20 318.60 82.20L318.60 82.20Q310 88 306 90.80L306 90.80L299.60 95.10Q295.80 115.80 289.65 127.65Q283.50 139.50 274 139.50L274 139.50Q268.90 139.50 265.70 136.35Q262.50 133.20 262.50 128.10L262.50 128.10Q262.50 121 268.10 112.85Q273.70 104.70 289.10 92.80L289.10 92.80L289.70 88.90Q288 91.60 285.25 93.05Q282.50 94.50 279.80 94.50L279.80 94.50Q273.60 94.50 269.90 90Q266.20 85.50 266.20 78.20L266.20 78.20Q266.20 70.20 269.90 63.05Q273.60 55.90 279.75 51.55Q285.90 47.20 292.80 47.20L292.80 47.20Q295 47.20 295.75 48.05Q296.50 48.90 297 51.10L297 51.10Q298.90 50.70 301.40 50.70L301.40 50.70Q303.90 50.70 304.95 51.45Q306 52.20 306 54.40L306 54.40Q306 55.60 305.90 56.30L305.90 56.30Q305.50 59.40 303.40 72L303.40 72Q303 74.40 302.55 77.25Q302.10 80.10 301.60 83.30L301.60 83.30Q309.30 77.30 316.40 72.70L316.40 72.70Q317.70 71.90 318.70 71.90L318.70 71.90ZM283.40 84.40Q285.70 84.40 287.80 81.60Q289.90 78.80 290.80 73.60L290.80 73.60L294 56.50Q289.90 56.60 286.40 59.65Q282.90 62.70 280.80 67.70Q278.70 72.70 278.70 78.30L278.70 78.30Q278.70 81.40 279.95 82.90Q281.20 84.40 283.40 84.40L283.40 84.40ZM275.10 129.80Q277.60 129.80 280.75 123.80Q283.90 117.80 286.80 104.70L286.80 104.70Q279.10 111.30 275.70 116.60Q272.30 121.90 272.30 125.90L272.30 125.90Q272.30 127.60 272.95 128.70Q273.60 129.80 275.10 129.80L275.10 129.80ZM321.40 94.50Q317.60 94.50 316.05 90.50Q314.50 86.50 314.50 77.70L314.50 77.70Q314.50 64.70 318.20 53L318.20 53Q319.10 50.10 321.15 48.75Q323.20 47.40 326.90 47.40L326.90 47.40Q328.90 47.40 329.70 47.90Q330.50 48.40 330.50 49.80L330.50 49.80Q330.50 51.40 329 57L329 57Q328 61 327.40 64Q326.80 67 326.40 71.40L326.40 71.40Q329.70 62.80 333.80 57.40Q337.90 52 341.85 49.70Q345.80 47.40 349.10 47.40L349.10 47.40Q355.60 47.40 355.60 53.90L355.60 53.90Q355.60 55.20 354.70 60.20L354.70 60.20Q353.90 64.20 353.90 65.20L353.90 65.20Q353.90 68.70 356.40 68.70L356.40 68.70Q359.20 68.70 363.60 64.30L363.60 64.30Q364.90 63 366.30 63L366.30 63Q367.60 63 368.35 64.15Q369.10 65.30 369.10 67.20L369.10 67.20Q369.10 70.90 367.10 73L367.10 73Q364.30 75.90 360.55 77.95Q356.80 80 352.60 80L352.60 80Q347.30 80 344.55 77.30Q341.80 74.60 341.80 70L341.80 70Q341.80 68.50 342.10 67L342.10 67Q342.30 65 342.30 64.30L342.30 64.30Q342.30 62.70 341.20 62.70L341.20 62.70Q339.70 62.70 337.25 66.05Q334.80 69.40 332.40 74.90Q330 80.40 328.50 86.50L328.50 86.50Q327.40 91.20 325.95 92.85Q324.50 94.50 321.40 94.50L321.40 94.50ZM372.10 94.50Q365.90 94.50 362.20 90Q358.50 85.50 358.50 78.20L358.50 78.20Q358.50 70.20 362.20 63.05Q365.90 55.90 372.05 51.55Q378.20 47.20 385.10 47.20L385.10 47.20Q387.30 47.20 388.05 48.05Q388.80 48.90 389.30 51.10L389.30 51.10Q391.40 50.70 393.70 50.70L393.70 50.70Q398.60 50.70 398.60 54.20L398.60 54.20Q398.60 56.30 397.10 64.20L397.10 64.20Q394.80 75.70 394.80 80.20L394.80 80.20Q394.80 81.70 395.55 82.60Q396.30 83.50 397.50 83.50L397.50 83.50Q399.40 83.50 402.10 81.05Q404.80 78.60 409.40 73.10L409.40 73.10Q410.60 71.70 412.10 71.70L412.10 71.70Q413.40 71.70 414.15 72.90Q414.90 74.10 414.90 76.20L414.90 76.20Q414.90 80.20 413 82.40L413 82.40Q408.90 87.50 404.30 91Q399.70 94.50 395.40 94.50L395.40 94.50Q392.10 94.50 389.35 92.25Q386.60 90 385.20 86.10L385.20 86.10Q380 94.50 372.10 94.50L372.10 94.50ZM375.70 84.40Q377.90 84.40 379.90 81.80Q381.90 79.20 382.80 74.90L382.80 74.90L386.50 56.50Q382.30 56.60 378.75 59.65Q375.20 62.70 373.10 67.70Q371 72.70 371 78.30L371 78.30Q371 81.40 372.25 82.90Q373.50 84.40 375.70 84.40L375.70 84.40ZM413.90 94.50Q410.10 94.50 408.55 90.50Q407 86.50 407 77.70L407 77.70Q407 64.70 410.70 53L410.70 53Q411.60 50.10 413.65 48.75Q415.70 47.40 419.40 47.40L419.40 47.40Q421.40 47.40 422.20 47.90Q423 48.40 423 49.80L423 49.80Q423 51.40 421.50 57L421.50 57Q420.50 61 419.90 63.95Q419.30 66.90 418.90 71.30L418.90 71.30Q421.60 63.50 425.35 58.10Q429.10 52.70 433.05 50.05Q437 47.40 440.50 47.40L440.50 47.40Q444 47.40 445.45 49Q446.90 50.60 446.90 53.90L446.90 53.90Q446.90 57.10 445 65.50L445 65.50Q444.20 69.10 443.90 70.90L443.90 70.90Q448.90 58.60 455 53Q461.10 47.40 466.40 47.40L466.40 47.40Q472.90 47.40 472.90 53.90L472.90 53.90Q472.90 57.80 470.70 68L470.70 68Q468.80 76.70 468.80 79.50L468.80 79.50Q468.80 83.50 471.70 83.50L471.70 83.50Q473.70 83.50 476.45 81.05Q479.20 78.60 483.80 73.10L483.80 73.10Q485 71.70 486.50 71.70L486.50 71.70Q487.80 71.70 488.55 72.90Q489.30 74.10 489.30 76.20L489.30 76.20Q489.30 80.20 487.40 82.40L487.40 82.40Q483.10 87.70 478.15 91.10Q473.20 94.50 466.90 94.50L466.90 94.50Q461.80 94.50 459.20 91.55Q456.60 88.60 456.60 83L456.60 83Q456.60 80.20 458 73L458 73Q459.30 66.70 459.30 64.30L459.30 64.30Q459.30 62.70 458.20 62.70L458.20 62.70Q456.90 62.70 454.50 66.05Q452.10 69.40 449.70 74.90Q447.30 80.40 445.80 86.50L445.80 86.50Q444.70 91.30 443.25 92.90Q441.80 94.50 438.60 94.50L438.60 94.50Q435.30 94.50 433.65 91.35Q432 88.20 432 83.70L432 83.70Q432 79.90 433 72.70L433 72.70Q433.80 66.30 433.80 64.30L433.80 64.30Q433.80 62.70 432.70 62.70L432.70 62.70Q431.20 62.70 428.90 66.30Q426.60 69.90 424.45 75.50Q422.30 81.10 421 86.50L421 86.50Q419.90 91.20 418.45 92.85Q417 94.50 413.90 94.50L413.90 94.50Z"></path></svg>